<svg xmlns="http://www.w3.org/2000/svg" xmlns:xlink="http://www.w3.org/1999/xlink" width="200" zoomAndPan="magnify" viewBox="0 0 375 149.999998" height="100" preserveAspectRatio="xMidYMid meet" version="1.0"><defs><g><g id="id1"/><g id="id2"/></g><clipPath id="id3"><path d="M 2 15 L 82 15 L 82 139.324219 L 2 139.324219 Z M 2 15 " clip-rule="nonzero"/></clipPath></defs><path fill="rgb(95.689392%, 95.289612%, 95.289612%)" d="M 63.933594 70.496094 C 78.640625 63.585938 81.03125 49.089844 71.035156 35.773438 C 58.921875 19.640625 42.265625 20.078125 42.265625 20.078125 C 42.265625 20.078125 25.609375 19.640625 13.496094 35.773438 C 3.664062 48.871094 5.8125 63.109375 19.878906 70.148438 C 16.492188 75.914062 11.996094 84.789062 10.980469 92.695312 C 9.171875 106.726562 15.226562 128.3125 20.503906 135.339844 C 23.019531 138.691406 29.726562 138.652344 33.976562 137.914062 C 36.316406 137.507812 37.84375 135.796875 38.207031 133.625 C 38.695312 130.683594 39.246094 126.132812 39.117188 121.0625 C 39.929688 121.148438 40.789062 121.199219 41.6875 121.199219 C 42.671875 121.199219 43.609375 121.140625 44.488281 121.035156 L 44.492188 121.058594 C 44.363281 126.128906 44.914062 130.683594 45.402344 133.625 C 45.765625 135.796875 47.292969 137.507812 49.636719 137.914062 C 53.882812 138.652344 60.589844 138.691406 63.105469 135.339844 C 68.382812 128.3125 74.4375 106.726562 72.632812 92.695312 C 71.632812 84.945312 67.292969 76.265625 63.933594 70.496094 " fill-opacity="1" fill-rule="nonzero"/><path fill="rgb(31.759644%, 32.159424%, 32.939148%)" d="M 78.441406 27.976562 C 75.019531 17.578125 57.996094 10.316406 57.476562 24.15625 C 61.941406 26.472656 66.769531 30.09375 71.035156 35.773438 C 71.578125 36.5 72.078125 37.226562 72.546875 37.953125 C 76.332031 37.09375 80.640625 34.675781 78.441406 27.976562 " fill-opacity="1" fill-rule="nonzero"/><path fill="rgb(31.759644%, 32.159424%, 32.939148%)" d="M 13.496094 35.773438 C 17.761719 30.09375 22.589844 26.472656 27.054688 24.15625 C 26.535156 10.316406 9.511719 17.578125 6.09375 27.976562 C 3.890625 34.675781 8.199219 37.09375 11.980469 37.953125 C 12.453125 37.226562 12.953125 36.5 13.496094 35.773438 " fill-opacity="1" fill-rule="nonzero"/><path fill="rgb(31.759644%, 32.159424%, 32.939148%)" d="M 71.867188 108.550781 C 71.867188 108.550781 66.824219 113.441406 52.765625 118.398438 C 51.253906 119.304688 49.984375 119.699219 49.980469 119.699219 C 48.527344 120.246094 46.617188 120.792969 44.34375 121.050781 C 44.3125 121.050781 44.28125 121.054688 44.25 121.058594 C 44.324219 121.050781 44.40625 121.042969 44.484375 121.035156 L 44.484375 121.058594 C 44.355469 126.128906 44.90625 130.683594 45.394531 133.625 C 45.757812 135.796875 47.285156 137.507812 49.628906 137.914062 C 53.875 138.652344 60.582031 138.691406 63.101562 135.339844 C 66.570312 130.71875 70.378906 119.789062 72.0625 108.859375 L 71.867188 108.550781 " fill-opacity="1" fill-rule="nonzero"/><path fill="rgb(31.759644%, 32.159424%, 32.939148%)" d="M 39.109375 121.0625 C 39.105469 121.058594 39.105469 121.058594 39.101562 121.058594 C 36.792969 120.808594 34.847656 120.253906 33.378906 119.699219 C 33.378906 119.699219 32.117188 119.308594 30.609375 118.40625 C 16.53125 113.449219 11.484375 108.550781 11.484375 108.550781 C 13.144531 119.582031 16.992188 130.675781 20.496094 135.339844 C 23.011719 138.691406 29.71875 138.652344 33.96875 137.914062 C 36.308594 137.507812 37.835938 135.796875 38.199219 133.625 C 38.6875 130.683594 39.238281 126.132812 39.109375 121.0625 " fill-opacity="1" fill-rule="nonzero"/><path fill="rgb(28.62854%, 29.019165%, 29.40979%)" d="M 39.109375 121.058594 C 36.796875 120.808594 34.851562 120.253906 33.378906 119.699219 C 33.378906 119.699219 33.90625 124.800781 33.664062 130.449219 C 33.511719 134.03125 29.722656 136.71875 26.96875 138.203125 C 29.382812 138.457031 31.953125 138.265625 33.96875 137.914062 C 36.308594 137.507812 37.835938 135.796875 38.199219 133.625 C 38.6875 130.683594 39.238281 126.132812 39.109375 121.0625 L 39.109375 121.058594 " fill-opacity="1" fill-rule="nonzero"/><path fill="rgb(28.62854%, 29.019165%, 29.40979%)" d="M 49.695312 130.449219 C 49.453125 124.800781 49.980469 119.699219 49.980469 119.699219 C 48.558594 120.234375 46.695312 120.769531 44.484375 121.03125 L 44.484375 121.058594 C 44.355469 126.128906 44.90625 130.683594 45.394531 133.625 C 45.757812 135.796875 47.285156 137.507812 49.628906 137.914062 C 51.585938 138.253906 54.070312 138.445312 56.425781 138.222656 C 53.671875 136.742188 49.847656 134.046875 49.695312 130.449219 " fill-opacity="1" fill-rule="nonzero"/><path fill="rgb(87.449646%, 87.449646%, 86.669922%)" d="M 49.980469 119.699219 C 51.96875 118.945312 53.089844 118.195312 53.089844 118.195312 C 53.089844 118.195312 51.96875 118.945312 49.980469 119.699219 C 49.984375 119.695312 56.265625 117.765625 57.507812 112.523438 C 57.664062 111.859375 56.871094 111.382812 56.355469 111.84375 C 54.464844 113.527344 50.253906 116.015625 41.679688 116.328125 C 33.105469 116.015625 28.894531 113.527344 27.003906 111.84375 C 26.492188 111.382812 25.695312 111.859375 25.851562 112.523438 C 27.09375 117.765625 33.378906 119.699219 33.378906 119.699219 C 31.394531 118.949219 30.269531 118.195312 30.269531 118.195312 C 30.269531 118.195312 31.394531 118.949219 33.378906 119.699219 C 34.859375 120.257812 36.820312 120.816406 39.15625 121.066406 C 40.878906 121.25 42.621094 121.242188 44.34375 121.050781 C 46.617188 120.792969 48.527344 120.246094 49.980469 119.699219 " fill-opacity="1" fill-rule="nonzero"/><path fill="rgb(31.759644%, 32.159424%, 32.939148%)" d="M 69.105469 67.390625 C 67.554688 68.570312 65.78125 69.632812 63.785156 70.558594 C 63.519531 70.683594 63.246094 70.808594 62.972656 70.925781 C 62.914062 70.949219 62.863281 70.972656 62.804688 70.996094 C 62.304688 71.210938 61.792969 71.414062 61.265625 71.609375 C 61.234375 71.621094 61.207031 71.632812 61.175781 71.644531 C 60.628906 71.84375 60.070312 72.039062 59.496094 72.222656 C 59.480469 72.226562 59.46875 72.230469 59.453125 72.234375 C 59.074219 72.355469 58.683594 72.472656 58.289062 72.585938 C 58.28125 72.585938 58.273438 72.589844 58.265625 72.59375 C 58.0625 72.648438 57.859375 72.707031 57.652344 72.761719 C 57.644531 72.765625 57.636719 72.765625 57.628906 72.769531 C 57.253906 72.867188 56.878906 72.964844 56.492188 73.058594 C 56.429688 73.070312 56.367188 73.085938 56.304688 73.101562 C 52.226562 74.066406 47.546875 74.601562 42.265625 74.601562 C 36.960938 74.601562 32.261719 74.0625 28.167969 73.089844 L 28.171875 73.089844 C 25.40625 72.429688 22.917969 71.570312 20.707031 70.542969 C 20.695312 70.539062 20.6875 70.535156 20.679688 70.53125 C 18.472656 69.503906 16.539062 68.300781 14.882812 66.960938 C 8.300781 71.496094 0.0703125 80.058594 4.445312 92.925781 C 8.519531 104.914062 24.429688 104.921875 40.425781 96.285156 C 57.238281 105.890625 74.640625 105.542969 78.929688 92.925781 C 83.171875 80.453125 75.570312 72.023438 69.105469 67.390625 " fill-opacity="1" fill-rule="nonzero"/><path fill="rgb(28.62854%, 29.019165%, 29.40979%)" d="M 60.496094 84.289062 C 59.3125 84.441406 57.976562 84.507812 56.507812 84.414062 C 53.289062 87.53125 49.878906 90.289062 46.398438 92.648438 C 19.96875 101.726562 9.261719 95.457031 3.832031 90.8125 C 4 91.503906 4.203125 92.207031 4.445312 92.925781 C 8.523438 104.921875 24.449219 104.925781 40.457031 96.269531 C 40.445312 96.273438 40.4375 96.28125 40.425781 96.285156 C 53.921875 103.992188 67.792969 105.292969 74.960938 98.980469 C 50.117188 98.976562 45.640625 97.898438 60.496094 84.289062 " fill-opacity="1" fill-rule="nonzero"/><path fill="rgb(25.489807%, 25.099182%, 25.878906%)" d="M 14.730469 34.210938 C 17.394531 30.972656 20.238281 28.476562 23.046875 26.554688 C 23.023438 18.132812 12.988281 22.339844 10.996094 28.402344 C 9.660156 32.460938 12.488281 33.785156 14.730469 34.210938 " fill-opacity="1" fill-rule="nonzero"/><path fill="rgb(25.489807%, 25.099182%, 25.878906%)" d="M 69.800781 34.210938 C 72.042969 33.785156 74.871094 32.460938 73.535156 28.402344 C 71.546875 22.339844 61.507812 18.132812 61.484375 26.554688 C 64.292969 28.476562 67.136719 30.972656 69.800781 34.210938 " fill-opacity="1" fill-rule="nonzero"/><path fill="rgb(87.449646%, 87.449646%, 86.669922%)" d="M 42.265625 69.265625 C 20.730469 69.265625 9.171875 60.453125 7.621094 49.226562 C 5.847656 62.863281 17.414062 74.601562 42.265625 74.601562 C 67.113281 74.601562 78.683594 62.863281 76.910156 49.226562 C 75.363281 60.453125 63.796875 69.265625 42.265625 69.265625 " fill-opacity="1" fill-rule="nonzero"/><path fill="rgb(31.759644%, 32.159424%, 32.939148%)" d="M 36.164062 42.566406 C 36.164062 47.328125 32.167969 52.921875 25.925781 52.921875 C 19.683594 52.921875 15.066406 49.519531 14.496094 45.351562 C 13.847656 40.636719 18.703125 37.46875 25.257812 36.644531 C 31.449219 35.863281 36.164062 37.808594 36.164062 42.566406 " fill-opacity="1" fill-rule="nonzero"/><path fill="rgb(31.759644%, 32.159424%, 32.939148%)" d="M 48.367188 42.566406 C 48.367188 47.328125 52.363281 52.921875 58.605469 52.921875 C 64.847656 52.921875 69.464844 49.519531 70.035156 45.351562 C 70.683594 40.636719 65.832031 37.46875 59.273438 36.644531 C 53.082031 35.863281 48.367188 37.808594 48.367188 42.566406 " fill-opacity="1" fill-rule="nonzero"/><path fill="rgb(20.779419%, 19.999695%, 19.999695%)" d="M 42.265625 43.785156 C 40.003906 43.785156 38.167969 44.355469 38.167969 45.644531 C 38.167969 46.734375 39.480469 47.988281 41.257812 48.351562 L 41.257812 52.921875 C 41.257812 53.476562 41.707031 53.925781 42.265625 53.925781 C 42.824219 53.925781 43.273438 53.476562 43.273438 52.921875 L 43.273438 48.351562 C 45.050781 47.988281 46.363281 46.734375 46.363281 45.644531 C 46.363281 44.355469 44.527344 43.785156 42.265625 43.785156 " fill-opacity="1" fill-rule="nonzero"/><path fill="rgb(20.779419%, 19.999695%, 19.999695%)" d="M 61.265625 44.136719 C 61.433594 43.714844 60.9375 43.339844 60.59375 43.625 C 59.726562 44.347656 58.410156 45.089844 56.871094 44.796875 C 55.59375 44.554688 54.660156 43.402344 54.085938 42.425781 C 53.855469 42.035156 53.269531 42.214844 53.289062 42.671875 C 53.351562 44.265625 53.921875 46.472656 56.5 46.929688 C 59.375 47.4375 60.683594 45.605469 61.265625 44.136719 " fill-opacity="1" fill-rule="nonzero"/><path fill="rgb(20.779419%, 19.999695%, 19.999695%)" d="M 30.460938 42.425781 C 29.886719 43.402344 28.953125 44.554688 27.679688 44.796875 C 26.136719 45.089844 24.820312 44.347656 23.953125 43.625 C 23.609375 43.339844 23.113281 43.714844 23.28125 44.136719 C 23.863281 45.605469 25.171875 47.4375 28.046875 46.929688 C 30.621094 46.472656 31.191406 44.265625 31.257812 42.671875 C 31.277344 42.214844 30.691406 42.035156 30.460938 42.425781 " fill-opacity="1" fill-rule="nonzero"/><g clip-path="url(#id3)"><path fill="rgb(20.779419%, 19.999695%, 19.999695%)" d="M 77.972656 92.605469 C 76.636719 96.535156 73.949219 99.28125 69.984375 100.773438 C 66.390625 102.125 61.835938 102.355469 56.8125 101.449219 C 52.214844 100.617188 47.296875 98.835938 42.492188 96.273438 C 47.484375 93.402344 52.402344 89.742188 56.898438 85.4375 C 57.230469 85.449219 57.558594 85.460938 57.878906 85.460938 C 63.351562 85.460938 66.730469 83.421875 66.882812 83.328125 C 67.355469 83.039062 67.5 82.421875 67.210938 81.953125 C 66.917969 81.480469 66.296875 81.335938 65.824219 81.625 C 65.8125 81.628906 64.914062 82.171875 63.328125 82.660156 C 62.015625 83.0625 59.984375 83.5 57.453125 83.449219 C 57.050781 82.984375 55.222656 81.007812 52.070312 79.546875 C 48.839844 78.050781 43.542969 76.828125 36.671875 79.515625 C 26.953125 83.316406 17.3125 81.511719 17.21875 81.492188 C 16.671875 81.386719 16.140625 81.742188 16.035156 82.285156 C 15.925781 82.828125 16.28125 83.355469 16.828125 83.460938 C 17.246094 83.542969 27.125 85.402344 37.414062 81.382812 C 42.359375 79.449219 46.976562 79.429688 51.132812 81.328125 C 53.15625 82.25 54.578125 83.425781 55.335938 84.148438 C 50.609375 88.652344 45.410156 92.453125 40.035156 95.359375 C 39.972656 95.386719 39.910156 95.421875 39.855469 95.460938 C 38 96.453125 36.125 97.34375 34.242188 98.117188 C 26.914062 101.128906 19.992188 102.101562 14.753906 100.863281 C 13.476562 100.5625 12.316406 100.136719 11.273438 99.59375 C 11.207031 99.546875 11.132812 99.507812 11.054688 99.476562 C 8.351562 98.003906 6.457031 95.707031 5.402344 92.605469 C 3.191406 86.101562 3.074219 76.632812 14.855469 68.207031 C 18.128906 70.695312 22.273438 72.625 27.144531 73.871094 C 27.683594 74.011719 28.234375 73.6875 28.375 73.152344 C 28.515625 72.613281 28.1875 72.066406 27.648438 71.929688 C 18.28125 69.53125 11.820312 64.53125 9.453125 57.855469 C 7.351562 51.925781 8.546875 45.140625 12.804688 38.53125 C 12.824219 38.503906 12.839844 38.476562 12.859375 38.445312 C 13.308594 37.753906 13.789062 37.0625 14.304688 36.375 C 20.382812 28.28125 27.644531 24.554688 32.664062 22.855469 C 38.121094 21.007812 42.199219 21.078125 42.238281 21.082031 C 42.257812 21.082031 42.273438 21.082031 42.292969 21.082031 C 42.332031 21.078125 46.339844 20.996094 51.785156 22.828125 C 56.828125 24.519531 64.121094 28.246094 70.226562 36.375 C 70.742188 37.0625 71.222656 37.753906 71.671875 38.445312 C 71.691406 38.476562 71.707031 38.503906 71.726562 38.53125 C 75.984375 45.140625 77.179688 51.925781 75.078125 57.855469 C 72.710938 64.53125 66.246094 69.53125 56.878906 71.929688 C 56.339844 72.070312 56.011719 72.617188 56.152344 73.152344 C 56.269531 73.605469 56.679688 73.90625 57.128906 73.90625 C 57.210938 73.90625 57.296875 73.894531 57.382812 73.871094 C 61.972656 72.695312 65.917969 70.917969 69.101562 68.632812 C 75.433594 73.355469 81.835938 81.246094 77.972656 92.605469 Z M 62.296875 134.742188 C 60.300781 137.402344 54.585938 137.757812 49.808594 136.925781 C 47.980469 136.609375 46.707031 135.3125 46.398438 133.460938 C 45.945312 130.734375 45.433594 126.578125 45.488281 121.914062 C 50.4375 121.148438 53.503906 119.132812 53.660156 119.027344 C 54.121094 118.71875 54.246094 118.09375 53.933594 117.636719 C 53.621094 117.175781 52.996094 117.054688 52.53125 117.363281 C 52.492188 117.390625 48.222656 120.199219 41.6875 120.199219 C 35.1875 120.199219 30.882812 117.390625 30.84375 117.363281 C 30.378906 117.054688 29.753906 117.175781 29.441406 117.636719 C 29.128906 118.09375 29.253906 118.71875 29.714844 119.027344 C 29.875 119.132812 33.035156 121.210938 38.121094 121.945312 C 38.171875 126.597656 37.664062 130.742188 37.210938 133.460938 C 36.902344 135.3125 35.628906 136.609375 33.800781 136.925781 C 27.171875 138.078125 22.753906 136.660156 21.3125 134.742188 C 17.355469 129.472656 12.632812 115.03125 11.792969 102.03125 C 12.578125 102.34375 13.410156 102.605469 14.285156 102.8125 C 15.949219 103.207031 17.730469 103.398438 19.605469 103.398438 C 25.878906 103.398438 33.167969 101.261719 40.40625 97.425781 C 48.113281 101.738281 55.898438 104.003906 62.570312 104.003906 C 65.53125 104.003906 68.277344 103.558594 70.695312 102.648438 C 71.078125 102.503906 71.445312 102.351562 71.808594 102.183594 C 70.941406 115.144531 66.234375 129.5 62.296875 134.742188 Z M 7.128906 33.875 C 6.324219 32.460938 6.296875 30.582031 7.050781 28.289062 C 9.203125 21.742188 16.800781 16.933594 21.511719 17.589844 C 24.8125 18.050781 25.800781 20.976562 26.007812 23.582031 C 21.714844 25.90625 16.925781 29.535156 12.6875 35.175781 C 12.28125 35.714844 11.898438 36.257812 11.53125 36.804688 C 9.375 36.203125 7.894531 35.21875 7.128906 33.875 Z M 63.019531 17.589844 C 67.730469 16.929688 75.328125 21.742188 77.480469 28.289062 C 78.234375 30.582031 78.207031 32.460938 77.402344 33.875 C 76.636719 35.21875 75.15625 36.203125 73 36.804688 C 72.632812 36.257812 72.25 35.714844 71.84375 35.175781 C 67.609375 29.535156 62.820312 25.90625 58.523438 23.582031 C 58.730469 20.976562 59.71875 18.050781 63.019531 17.589844 Z M 78.929688 76.765625 C 77.171875 73.339844 74.417969 70.179688 70.738281 67.351562 C 73.660156 64.871094 75.785156 61.898438 76.980469 58.523438 C 79.175781 52.332031 78.148438 45.355469 74.113281 38.5625 C 76.5 37.792969 78.195312 36.554688 79.160156 34.859375 C 80.253906 32.9375 80.335938 30.515625 79.398438 27.664062 C 77.117188 20.726562 68.863281 14.75 62.738281 15.601562 C 60.683594 15.890625 57.320312 17.203125 56.597656 22.609375 C 55.105469 21.902344 53.699219 21.351562 52.429688 20.925781 C 46.820312 19.042969 42.671875 19.066406 42.265625 19.078125 C 41.859375 19.066406 37.707031 19.042969 32.101562 20.925781 C 30.832031 21.351562 29.425781 21.902344 27.933594 22.609375 C 27.210938 17.203125 23.847656 15.890625 21.792969 15.601562 C 15.664062 14.75 7.414062 20.726562 5.132812 27.664062 C 4.195312 30.515625 4.277344 32.9375 5.371094 34.859375 C 6.335938 36.554688 8.03125 37.792969 10.417969 38.5625 C 6.382812 45.355469 5.355469 52.328125 7.550781 58.523438 C 8.671875 61.6875 10.609375 64.5 13.257812 66.886719 C 9.425781 69.707031 6.535156 72.882812 4.667969 76.34375 C 1.847656 81.5625 1.449219 87.25 3.492188 93.246094 C 4.652344 96.664062 6.769531 99.292969 9.714844 101.019531 C 10.011719 107.167969 11.234375 114.214844 13.179688 120.9375 C 15.082031 127.492188 17.457031 132.960938 19.695312 135.941406 C 21.753906 138.6875 25.847656 139.324219 29.203125 139.324219 C 31.480469 139.324219 33.417969 139.027344 34.148438 138.902344 C 36.820312 138.4375 38.753906 136.480469 39.203125 133.789062 C 39.660156 131.03125 40.175781 126.855469 40.144531 122.152344 C 40.644531 122.183594 41.160156 122.203125 41.6875 122.203125 C 42.300781 122.203125 42.890625 122.179688 43.464844 122.136719 C 43.433594 126.847656 43.949219 131.03125 44.40625 133.789062 C 44.855469 136.480469 46.792969 138.4375 49.460938 138.902344 C 51.058594 139.179688 52.734375 139.320312 54.324219 139.320312 C 55.3125 139.320312 56.265625 139.265625 57.148438 139.15625 C 60.335938 138.753906 62.613281 137.671875 63.914062 135.941406 C 66.152344 132.964844 68.523438 127.503906 70.417969 120.964844 C 72.371094 114.246094 73.597656 107.195312 73.894531 101.042969 C 76.714844 99.207031 78.757812 96.5625 79.886719 93.246094 C 81.867188 87.414062 81.546875 81.867188 78.929688 76.765625 " fill-opacity="1" fill-rule="nonzero"/></g><g fill="rgb(0%, 0%, 0%)" fill-opacity="1"><g transform="translate(79.315414, 72.969084)"><g><path d="M 47.234375 -29.421875 C 47.179688 -29.128906 47.453125 -28.984375 48.046875 -28.984375 C 48.640625 -28.984375 50.054688 -29.226562 52.296875 -29.71875 C 54.535156 -30.207031 55.925781 -30.453125 56.46875 -30.453125 C 58.144531 -30.453125 59.378906 -29.910156 60.171875 -28.828125 C 60.960938 -27.742188 61.359375 -26.941406 61.359375 -26.421875 C 61.359375 -25.910156 61.0625 -25.554688 60.46875 -25.359375 C 59.875 -25.160156 57.640625 -24.847656 53.765625 -24.421875 C 49.898438 -24.003906 46.6875 -23.820312 44.125 -23.875 C 42.644531 -23.132812 41.597656 -22.765625 40.984375 -22.765625 C 40.367188 -22.765625 39.789062 -23.0625 39.25 -23.65625 C 38.21875 -23.550781 37.234375 -23.304688 36.296875 -22.921875 C 34.472656 -20.703125 33.238281 -18.960938 32.59375 -17.703125 C 31.957031 -16.441406 31.125 -14.238281 30.09375 -11.09375 C 28.113281 -5.269531 25.238281 -0.351562 21.46875 3.65625 C 17.695312 7.675781 14.3125 9.6875 11.3125 9.6875 C 10.664062 9.6875 10.097656 9.597656 9.609375 9.421875 C 9.117188 9.253906 8.875 9.046875 8.875 8.796875 C 8.875 8.546875 9.191406 8.273438 9.828125 7.984375 C 12.984375 6.503906 16.296875 3.128906 19.765625 -2.140625 C 23.242188 -7.410156 25.96875 -13.347656 27.9375 -19.953125 C 24.6875 -17.984375 22.097656 -16.53125 20.171875 -15.59375 C 18.253906 -14.65625 16.492188 -14.1875 14.890625 -14.1875 C 13.296875 -14.1875 12.085938 -14.359375 11.265625 -14.703125 C 10.453125 -15.054688 10.046875 -15.75 10.046875 -16.78125 C 10.046875 -17.269531 10.144531 -17.734375 10.34375 -18.171875 C 10.539062 -18.617188 10.765625 -18.84375 11.015625 -18.84375 L 11.75 -18.84375 C 12.59375 -18.84375 14.144531 -19.289062 16.40625 -20.1875 C 22.613281 -22.644531 27.691406 -24.367188 31.640625 -25.359375 C 31.691406 -25.953125 31.429688 -26.664062 30.859375 -27.5 C 30.296875 -28.332031 29.644531 -29 28.90625 -29.5 C 27.625 -28.90625 25.847656 -27.570312 23.578125 -25.5 C 23.285156 -25.207031 22.96875 -25.0625 22.625 -25.0625 C 21.832031 -25.0625 21.148438 -25.6875 20.578125 -26.9375 C 20.015625 -28.195312 19.734375 -29.40625 19.734375 -30.5625 C 19.734375 -31.71875 20.25 -32.765625 21.28125 -33.703125 C 22.320312 -34.640625 23.347656 -35.109375 24.359375 -35.109375 C 25.367188 -35.109375 26.144531 -34.9375 26.6875 -34.59375 C 28.363281 -35.28125 29.890625 -35.820312 31.265625 -36.21875 C 31.265625 -36.757812 31.128906 -37.3125 30.859375 -37.875 C 30.585938 -38.445312 30.253906 -38.859375 29.859375 -39.109375 C 28.878906 -39.597656 27.820312 -40.582031 26.6875 -42.0625 C 25.550781 -43.539062 24.984375 -44.632812 24.984375 -45.34375 C 24.984375 -46.0625 25.523438 -46.421875 26.609375 -46.421875 C 27.148438 -46.421875 27.65625 -46.347656 28.125 -46.203125 C 28.59375 -46.054688 29.023438 -45.984375 29.421875 -45.984375 C 32.617188 -45.984375 38.085938 -47.851562 45.828125 -51.59375 C 45.972656 -51.695312 46.195312 -51.75 46.5 -51.75 C 47.1875 -51.75 48.441406 -51.378906 50.265625 -50.640625 C 52.085938 -49.898438 53.207031 -49.332031 53.625 -48.9375 C 54.050781 -48.539062 54.265625 -48.070312 54.265625 -47.53125 C 54.265625 -46.988281 54.050781 -46.53125 53.625 -46.15625 C 53.207031 -45.789062 52.65625 -45.582031 51.96875 -45.53125 C 48.414062 -45.382812 45.703125 -44.625 43.828125 -43.25 C 44.566406 -42.75 45.304688 -41.957031 46.046875 -40.875 C 47.484375 -40.726562 48.609375 -40.910156 49.421875 -41.421875 C 50.234375 -41.941406 50.882812 -42.203125 51.375 -42.203125 C 52.457031 -42.203125 53.550781 -41.742188 54.65625 -40.828125 C 55.769531 -39.921875 56.328125 -38.953125 56.328125 -37.921875 C 56.328125 -37.773438 56.300781 -37.640625 56.25 -37.515625 C 56.207031 -37.390625 55.765625 -36.867188 54.921875 -35.953125 C 54.085938 -35.046875 53.078125 -34.085938 51.890625 -33.078125 C 50.710938 -32.066406 49.160156 -30.847656 47.234375 -29.421875 Z M 39.765625 -38.953125 C 39.523438 -39.640625 39.082031 -40.082031 38.4375 -40.28125 C 38 -40.132812 37.085938 -39.890625 35.703125 -39.546875 C 35.992188 -39.253906 36.265625 -38.710938 36.515625 -37.921875 C 37.648438 -38.265625 38.734375 -38.609375 39.765625 -38.953125 Z M 48.859375 -39.25 C 48.316406 -39.394531 47.859375 -39.46875 47.484375 -39.46875 C 47.117188 -39.46875 46.789062 -39.347656 46.5 -39.109375 C 46.738281 -38.066406 46.882812 -37.351562 46.9375 -36.96875 C 48.164062 -37.945312 48.804688 -38.707031 48.859375 -39.25 Z M 39.921875 -36.515625 C 39.078125 -36.222656 38.1875 -35.707031 37.25 -34.96875 C 36.8125 -32.550781 36.59375 -30.984375 36.59375 -30.265625 C 36.59375 -29.554688 36.765625 -29.203125 37.109375 -29.203125 C 37.453125 -29.203125 38.046875 -29.421875 38.890625 -29.859375 C 39.472656 -32.421875 39.816406 -34.640625 39.921875 -36.515625 Z M 31.78125 -30.3125 C 31.832031 -30.65625 31.832031 -31.046875 31.78125 -31.484375 C 31.539062 -31.390625 31.269531 -31.21875 30.96875 -30.96875 C 31.113281 -30.726562 31.382812 -30.507812 31.78125 -30.3125 Z M 31.78125 -30.3125 "/></g></g></g><g fill="rgb(0%, 0%, 0%)" fill-opacity="1"><g transform="translate(153.230963, 72.969084)"><g><path d="M 62.015625 -39.328125 C 63.546875 -38.835938 64.46875 -38.207031 64.78125 -37.4375 C 65.101562 -36.675781 65.265625 -35.960938 65.265625 -35.296875 C 65.265625 -34.628906 65.101562 -34.207031 64.78125 -34.03125 C 64.46875 -33.863281 63.84375 -33.734375 62.90625 -33.640625 C 59.351562 -33.242188 56.222656 -32.695312 53.515625 -32 C 50.804688 -31.3125 46.914062 -30.769531 41.84375 -30.375 L 41.765625 -29.5625 C 43.734375 -29.5625 45.347656 -29.695312 46.609375 -29.96875 C 47.867188 -30.238281 48.789062 -30.375 49.375 -30.375 C 50.8125 -30.375 51.894531 -29.84375 52.625 -28.78125 C 53.363281 -27.726562 53.734375 -26.976562 53.734375 -26.53125 C 53.734375 -26.09375 53.5625 -25.601562 53.21875 -25.0625 C 53.8125 -24.863281 54.289062 -24.28125 54.65625 -23.3125 C 55.03125 -22.351562 55.21875 -21.550781 55.21875 -20.90625 C 55.21875 -20.269531 55.171875 -19.878906 55.078125 -19.734375 C 54.628906 -19.097656 54.40625 -17.410156 54.40625 -14.671875 C 54.40625 -11.941406 54.640625 -8.59375 55.109375 -4.625 C 55.578125 -0.65625 55.8125 3.410156 55.8125 7.578125 C 55.8125 11.742188 55.34375 13.828125 54.40625 13.828125 C 53.957031 13.828125 53.375 13.296875 52.65625 12.234375 C 51.945312 11.171875 51.296875 9.800781 50.703125 8.125 C 50.117188 6.457031 49.828125 5.375 49.828125 4.875 C 49.828125 4.382812 50.195312 3.867188 50.9375 3.328125 C 50.882812 1.796875 50.859375 -0.640625 50.859375 -3.984375 L 50.9375 -18.1875 C 50.9375 -20.0625 50.875 -21.351562 50.75 -22.0625 C 50.625 -22.78125 50.390625 -23.140625 50.046875 -23.140625 C 49.703125 -23.140625 49.257812 -22.617188 48.71875 -21.578125 C 48.175781 -20.546875 47.90625 -19.488281 47.90625 -18.40625 L 48.125 -14.34375 C 48.125 -13.40625 48.023438 -12.476562 47.828125 -11.5625 C 47.628906 -10.65625 47.53125 -9.164062 47.53125 -7.09375 C 47.53125 -5.914062 47.28125 -5.328125 46.78125 -5.328125 C 46.289062 -5.328125 45.585938 -5.914062 44.671875 -7.09375 C 43.765625 -8.28125 43.3125 -9.6875 43.3125 -11.3125 L 43.546875 -14.34375 C 43.546875 -16.113281 42.851562 -17.394531 41.46875 -18.1875 C 41.21875 -15.675781 41.09375 -8.945312 41.09375 2 C 41.09375 4.363281 40.847656 6.40625 40.359375 8.125 C 39.867188 9.851562 39.523438 10.71875 39.328125 10.71875 C 39.035156 10.71875 38.53125 10.097656 37.8125 8.859375 C 37.09375 7.628906 36.660156 6.203125 36.515625 4.578125 C 36.367188 2.953125 36.296875 -1.160156 36.296875 -7.765625 C 36.296875 -8.503906 36.207031 -8.875 36.03125 -8.875 C 35.863281 -8.875 35.71875 -8.640625 35.59375 -8.171875 C 35.46875 -7.703125 35.082031 -6.9375 34.4375 -5.875 C 33.800781 -4.8125 33.484375 -3.640625 33.484375 -2.359375 C 33.484375 -2.066406 33.359375 -1.804688 33.109375 -1.578125 C 32.867188 -1.359375 32.460938 -1.25 31.890625 -1.25 C 31.328125 -1.25 30.710938 -1.765625 30.046875 -2.796875 C 29.378906 -3.835938 29.046875 -4.773438 29.046875 -5.609375 C 29.046875 -6.453125 29.117188 -7.191406 29.265625 -7.828125 C 29.421875 -8.472656 29.5 -9.238281 29.5 -10.125 C 29.5 -11.007812 29.398438 -11.453125 29.203125 -11.453125 C 29.003906 -11.453125 28.804688 -11.207031 28.609375 -10.71875 C 28.410156 -10.226562 28.273438 -9.613281 28.203125 -8.875 C 28.128906 -8.132812 28.09375 -7.085938 28.09375 -5.734375 C 28.09375 -4.378906 27.570312 -2.664062 26.53125 -0.59375 C 25.5 1.476562 24.171875 3.460938 22.546875 5.359375 C 20.921875 7.253906 19.835938 8.203125 19.296875 8.203125 C 18.753906 8.203125 18.296875 7.632812 17.921875 6.5 C 17.554688 5.375 17.375 4.441406 17.375 3.703125 C 17.375 2.367188 17.9375 1.023438 19.0625 -0.328125 C 20.195312 -1.679688 21.007812 -3.046875 21.5 -4.421875 C 22 -5.804688 22.25 -7.015625 22.25 -8.046875 C 22.25 -9.085938 22.125 -9.90625 21.875 -10.5 C 21.332031 -11.832031 21.0625 -13.125 21.0625 -14.375 C 21.0625 -15.632812 21.210938 -16.5625 21.515625 -17.15625 C 22.296875 -18.78125 22.710938 -19.960938 22.765625 -20.703125 C 21.390625 -21.046875 20.332031 -21.351562 19.59375 -21.625 C 18.851562 -21.894531 18.484375 -22.285156 18.484375 -22.796875 C 18.484375 -23.316406 18.617188 -23.757812 18.890625 -24.125 C 19.160156 -24.5 19.429688 -24.6875 19.703125 -24.6875 C 19.972656 -24.6875 20.191406 -24.660156 20.359375 -24.609375 C 20.535156 -24.566406 20.769531 -24.546875 21.0625 -24.546875 C 22.394531 -24.546875 24.476562 -25.085938 27.3125 -26.171875 C 30.144531 -27.253906 33.1875 -28.164062 36.4375 -28.90625 L 36.4375 -29.34375 C 35.695312 -29.34375 35.328125 -29.390625 35.328125 -29.484375 C 35.328125 -29.585938 35.695312 -29.8125 36.4375 -30.15625 C 36.488281 -30.800781 36.515625 -31.640625 36.515625 -32.671875 C 35.484375 -32.578125 32.734375 -31.835938 28.265625 -30.453125 C 23.804688 -29.078125 19.535156 -27.648438 15.453125 -26.171875 C 13.773438 -25.578125 12.257812 -25.28125 10.90625 -25.28125 C 9.550781 -25.28125 8.269531 -25.867188 7.0625 -27.046875 C 5.851562 -28.234375 5.25 -29.082031 5.25 -29.59375 C 5.25 -30.113281 5.71875 -30.421875 6.65625 -30.515625 C 7.59375 -30.617188 8.75 -30.867188 10.125 -31.265625 L 22.84375 -34.21875 C 29.988281 -35.851562 34.570312 -36.863281 36.59375 -37.25 C 36.644531 -38.144531 36.671875 -39.523438 36.671875 -41.390625 C 34.648438 -40.554688 32.785156 -40.140625 31.078125 -40.140625 C 29.378906 -40.140625 27.738281 -40.582031 26.15625 -41.46875 C 24.582031 -42.351562 23.796875 -43.140625 23.796875 -43.828125 C 23.796875 -44.617188 24.316406 -45.066406 25.359375 -45.171875 C 27.960938 -45.410156 31.804688 -46.097656 36.890625 -47.234375 C 36.890625 -50.390625 36.828125 -52.285156 36.703125 -52.921875 C 36.578125 -53.566406 36.40625 -53.890625 36.1875 -53.890625 C 35.96875 -53.890625 35.804688 -53.554688 35.703125 -52.890625 C 35.609375 -52.222656 35.472656 -51.890625 35.296875 -51.890625 C 35.117188 -51.890625 35.054688 -52.234375 35.109375 -52.921875 L 35.1875 -53.8125 C 35.1875 -54.257812 35.125 -54.691406 35 -55.109375 C 34.875 -55.523438 34.8125 -55.941406 34.8125 -56.359375 C 34.8125 -56.785156 34.957031 -57.09375 35.25 -57.28125 C 35.550781 -57.476562 36.109375 -57.578125 36.921875 -57.578125 C 37.734375 -57.578125 38.609375 -57.488281 39.546875 -57.3125 C 40.484375 -57.144531 40.953125 -56.617188 40.953125 -55.734375 C 40.953125 -55.390625 41.097656 -54.945312 41.390625 -54.40625 C 42.085938 -53.125 42.359375 -51.101562 42.203125 -48.34375 C 43.046875 -48.445312 43.820312 -48.5 44.53125 -48.5 C 45.25 -48.5 46.84375 -48.398438 49.3125 -48.203125 C 49.851562 -48.585938 50.40625 -48.78125 50.96875 -48.78125 C 51.53125 -48.78125 52.128906 -48.335938 52.765625 -47.453125 C 53.410156 -46.566406 54.003906 -45.953125 54.546875 -45.609375 C 55.097656 -45.265625 55.546875 -44.707031 55.890625 -43.9375 C 56.234375 -43.175781 56.40625 -42.523438 56.40625 -41.984375 C 56.40625 -41.691406 56.234375 -41.320312 55.890625 -40.875 C 55.296875 -40.1875 55 -39.796875 55 -39.703125 C 55 -39.453125 56.128906 -39.375 58.390625 -39.46875 C 58.390625 -40.007812 58.757812 -40.28125 59.5 -40.28125 C 60.238281 -40.28125 61.078125 -39.960938 62.015625 -39.328125 Z M 41.984375 -38.0625 C 43.515625 -39.195312 44.785156 -40.28125 45.796875 -41.3125 C 46.804688 -42.351562 47.3125 -43.019531 47.3125 -43.3125 C 47.3125 -43.613281 47.140625 -43.765625 46.796875 -43.765625 C 45.910156 -43.765625 44.332031 -43.441406 42.0625 -42.796875 Z M 41.765625 -31.859375 C 43.296875 -32.148438 45.179688 -32.691406 47.421875 -33.484375 C 49.660156 -34.273438 50.914062 -34.742188 51.1875 -34.890625 C 51.457031 -35.035156 51.59375 -35.179688 51.59375 -35.328125 C 51.59375 -35.578125 51.296875 -35.703125 50.703125 -35.703125 C 50.117188 -35.703125 48.816406 -35.46875 46.796875 -35 C 44.773438 -34.53125 43.144531 -34.023438 41.90625 -33.484375 Z M 46.046875 -17.8125 C 46.585938 -19.582031 47.039062 -20.828125 47.40625 -21.546875 C 47.78125 -22.265625 48.535156 -23.238281 49.671875 -24.46875 C 49.972656 -24.8125 50.125 -25.144531 50.125 -25.46875 C 50.125 -25.789062 49.519531 -25.953125 48.3125 -25.953125 C 47.101562 -25.953125 44.894531 -25.828125 41.6875 -25.578125 L 41.46875 -19.8125 C 43.289062 -19.757812 44.816406 -19.09375 46.046875 -17.8125 Z M 36.4375 -24.765625 C 35.5 -24.515625 34.316406 -23.945312 32.890625 -23.0625 C 30.085938 -21.332031 27.328125 -20.46875 24.609375 -20.46875 C 24.710938 -19.488281 24.960938 -17.972656 25.359375 -15.921875 C 25.753906 -13.878906 25.988281 -12.796875 26.0625 -12.671875 C 26.132812 -12.554688 26.242188 -12.5 26.390625 -12.5 C 26.785156 -12.5 27.007812 -12.867188 27.0625 -13.609375 C 27.101562 -14.984375 27.566406 -15.867188 28.453125 -16.265625 C 29.347656 -16.660156 30.359375 -16.859375 31.484375 -16.859375 C 32.617188 -16.859375 33.367188 -16.5625 33.734375 -15.96875 C 34.109375 -15.375 34.296875 -14.289062 34.296875 -12.71875 C 34.296875 -12.414062 34.367188 -12.265625 34.515625 -12.265625 C 34.816406 -12.265625 35.4375 -13.054688 36.375 -14.640625 C 36.414062 -16.316406 36.4375 -19.691406 36.4375 -24.765625 Z M 36.4375 -24.765625 "/></g></g></g><g fill="rgb(0%, 0%, 0%)" fill-opacity="1"><g transform="translate(227.146512, 72.969084)"><g><path d="M 33.640625 -2.734375 C 28.609375 -1.703125 24.453125 -0.691406 21.171875 0.296875 C 17.898438 1.285156 16.265625 2.023438 16.265625 2.515625 C 16.265625 2.609375 16.335938 2.65625 16.484375 2.65625 C 16.628906 2.65625 16.828125 2.609375 17.078125 2.515625 C 22.640625 0.691406 25.800781 -0.21875 26.5625 -0.21875 C 27.332031 -0.21875 28.085938 -0.0351562 28.828125 0.328125 C 29.566406 0.703125 30.429688 0.890625 31.421875 0.890625 C 33.191406 0.890625 35.160156 0.398438 37.328125 -0.578125 C 39.492188 -1.566406 41.585938 -2.0625 43.609375 -2.0625 C 44.597656 -2.0625 45.375 -1.851562 45.9375 -1.4375 C 46.507812 -1.019531 47.484375 -0.8125 48.859375 -0.8125 C 50.929688 -0.8125 53.085938 -1.21875 55.328125 -2.03125 C 57.566406 -2.84375 59.351562 -3.25 60.6875 -3.25 C 63.050781 -3.25 64.882812 -2.363281 66.1875 -0.59375 C 67.5 1.175781 68.15625 2.554688 68.15625 3.546875 C 68.15625 4.035156 67.957031 4.460938 67.5625 4.828125 C 67.164062 5.203125 65.90625 5.585938 63.78125 5.984375 C 61.664062 6.378906 60.09375 6.578125 59.0625 6.578125 C 56.601562 6.578125 55.375 6.0625 55.375 5.03125 C 55.375 4.4375 55.738281 4.066406 56.46875 3.921875 C 58.101562 3.523438 59.300781 2.941406 60.0625 2.171875 C 60.820312 1.410156 61.203125 0.757812 61.203125 0.21875 C 61.203125 -0.320312 60.992188 -0.59375 60.578125 -0.59375 C 60.160156 -0.59375 59.726562 -0.492188 59.28125 -0.296875 C 55.6875 1.378906 53.132812 2.488281 51.625 3.03125 C 50.125 3.570312 48.84375 3.84375 47.78125 3.84375 C 46.726562 3.84375 45.609375 3.203125 44.421875 1.921875 C 43.785156 1.234375 43.023438 0.890625 42.140625 0.890625 C 40.609375 0.890625 37.75 2.046875 33.5625 4.359375 C 32.175781 5.148438 31.140625 5.546875 30.453125 5.546875 C 29.765625 5.546875 28.632812 4.953125 27.0625 3.765625 C 26.613281 3.421875 26.066406 3.25 25.421875 3.25 C 23.554688 3.25 21.046875 4.703125 17.890625 7.609375 C 16.460938 8.992188 15.34375 9.6875 14.53125 9.6875 C 13.71875 9.6875 13.035156 9.066406 12.484375 7.828125 C 11.941406 6.597656 11.671875 5.492188 11.671875 4.515625 C 11.671875 2.296875 13.101562 0.890625 15.96875 0.296875 C 20.351562 -0.585938 26.019531 -1.941406 32.96875 -3.765625 C 32.570312 -4.410156 32.113281 -5.347656 31.59375 -6.578125 C 31.082031 -7.804688 30.828125 -8.617188 30.828125 -9.015625 C 30.828125 -9.410156 30.601562 -9.90625 30.15625 -10.5 C 29.71875 -11.09375 29.398438 -11.644531 29.203125 -12.15625 C 29.003906 -12.675781 28.828125 -13.460938 28.671875 -14.515625 C 28.523438 -15.578125 28.234375 -16.234375 27.796875 -16.484375 C 27.253906 -13.179688 26.820312 -10.3125 26.5 -7.875 C 26.175781 -5.4375 25.625 -4.21875 24.84375 -4.21875 C 24.300781 -4.21875 23.617188 -4.976562 22.796875 -6.5 C 21.984375 -8.03125 21.578125 -9.320312 21.578125 -10.375 C 21.578125 -11.4375 21.710938 -12.09375 21.984375 -12.34375 C 22.253906 -12.59375 22.535156 -13.394531 22.828125 -14.75 C 23.128906 -16.101562 23.613281 -17.640625 24.28125 -19.359375 C 24.945312 -21.085938 26.390625 -24.414062 28.609375 -29.34375 C 28.117188 -29.101562 26.242188 -27.882812 22.984375 -25.6875 C 19.734375 -23.488281 17.25 -22.390625 15.53125 -22.390625 C 14.394531 -22.390625 13.664062 -22.847656 13.34375 -23.765625 C 13.019531 -24.679688 12.859375 -25.9375 12.859375 -27.53125 C 12.859375 -29.132812 13.238281 -30.171875 14 -30.640625 C 14.769531 -31.109375 16.863281 -33.148438 20.28125 -36.765625 C 23.707031 -40.390625 25.519531 -42.570312 25.71875 -43.3125 C 25.914062 -44.050781 26.097656 -44.582031 26.265625 -44.90625 C 26.441406 -45.226562 26.707031 -45.390625 27.0625 -45.390625 C 27.84375 -45.390625 29.289062 -44.734375 31.40625 -43.421875 C 33.53125 -42.117188 34.59375 -40.953125 34.59375 -39.921875 C 34.59375 -39.472656 34.25 -39.039062 33.5625 -38.625 C 32.875 -38.207031 31.800781 -37.34375 30.34375 -36.03125 C 28.894531 -34.726562 28.171875 -33.953125 28.171875 -33.703125 C 28.171875 -33.660156 28.191406 -33.640625 28.234375 -33.640625 C 28.679688 -33.640625 30.015625 -34.328125 32.234375 -35.703125 C 34.691406 -38.554688 36.128906 -39.984375 36.546875 -39.984375 C 36.972656 -39.984375 37.847656 -39.523438 39.171875 -38.609375 C 40.503906 -37.703125 41.171875 -36.757812 41.171875 -35.78125 C 41.171875 -35.1875 40.898438 -34.71875 40.359375 -34.375 C 37.941406 -32.75 36.34375 -31.441406 35.5625 -30.453125 C 36.84375 -28.878906 37.65625 -27.796875 38 -27.203125 C 41.195312 -31.441406 43.238281 -34.003906 44.125 -34.890625 C 44.226562 -35.828125 44.28125 -37.460938 44.28125 -39.796875 C 44.28125 -42.140625 44.226562 -44.347656 44.125 -46.421875 L 43.828125 -51.375 C 43.828125 -53.394531 44.222656 -54.40625 45.015625 -54.40625 C 45.660156 -54.40625 46.203125 -53.691406 46.640625 -52.265625 C 47.285156 -50.097656 48.035156 -48.222656 48.890625 -46.640625 C 49.753906 -45.066406 50.210938 -43.585938 50.265625 -42.203125 C 51.054688 -42.941406 51.695312 -43.3125 52.1875 -43.3125 C 52.675781 -43.3125 53.144531 -43.101562 53.59375 -42.6875 C 54.039062 -42.269531 54.789062 -41.40625 55.84375 -40.09375 C 56.90625 -38.789062 57.4375 -37.453125 57.4375 -36.078125 C 57.4375 -35.035156 56.648438 -33.703125 55.078125 -32.078125 C 57.441406 -26.898438 58.625 -23.71875 58.625 -22.53125 C 58.625 -21.351562 58.425781 -20.554688 58.03125 -20.140625 C 57.632812 -19.722656 57.03125 -19.476562 56.21875 -19.40625 C 55.40625 -19.332031 54.085938 -18.945312 52.265625 -18.25 C 50.441406 -17.5625 48.71875 -16.800781 47.09375 -15.96875 C 46.84375 -15.375 46.71875 -14.90625 46.71875 -14.5625 C 46.71875 -14.21875 46.765625 -13.921875 46.859375 -13.671875 C 47.109375 -13.628906 47.429688 -13.609375 47.828125 -13.609375 C 49.253906 -13.609375 50.289062 -13.753906 50.9375 -14.046875 C 51.226562 -14.191406 51.617188 -14.265625 52.109375 -14.265625 C 53.347656 -14.265625 54.394531 -13.859375 55.25 -13.046875 C 56.113281 -12.234375 56.546875 -11.394531 56.546875 -10.53125 C 56.546875 -9.664062 56.078125 -9.1875 55.140625 -9.09375 C 54.796875 -9.039062 54.28125 -8.878906 53.59375 -8.609375 C 52.90625 -8.335938 52.410156 -8.078125 52.109375 -7.828125 C 50.628906 -6.796875 48.328125 -5.800781 45.203125 -4.84375 C 42.078125 -3.882812 38.960938 -3.28125 35.859375 -3.03125 C 35.503906 -2.34375 35.164062 -2 34.84375 -2 C 34.53125 -2 34.128906 -2.242188 33.640625 -2.734375 Z M 51.75 -38.21875 C 52.039062 -39.15625 52.1875 -40.050781 52.1875 -40.90625 C 52.1875 -41.769531 51.878906 -42.203125 51.265625 -42.203125 C 50.648438 -42.203125 50.34375 -41.867188 50.34375 -41.203125 C 50.34375 -40.546875 50.8125 -39.550781 51.75 -38.21875 Z M 51.375 -37.109375 L 50.125 -39.46875 C 49.382812 -36.46875 49.0625 -34.375 49.15625 -33.1875 C 50.1875 -34.519531 50.925781 -35.828125 51.375 -37.109375 Z M 44.125 -8.125 C 43.238281 -10.738281 42.625 -13.007812 42.28125 -14.9375 C 41.539062 -14.882812 41.0625 -14.96875 40.84375 -15.1875 C 40.625 -15.414062 40.460938 -15.945312 40.359375 -16.78125 C 40.265625 -17.613281 40.21875 -18.5 40.21875 -19.4375 C 40.21875 -20.375 40.273438 -21.015625 40.390625 -21.359375 C 40.515625 -21.703125 40.75 -21.972656 41.09375 -22.171875 C 41.882812 -22.617188 42.648438 -23.484375 43.390625 -24.765625 C 43.785156 -27.035156 44.007812 -29.203125 44.0625 -31.265625 C 41.539062 -27.566406 39.960938 -25.15625 39.328125 -24.03125 C 39.421875 -23.53125 39.46875 -22.910156 39.46875 -22.171875 C 39.46875 -20.109375 39.1875 -17.425781 38.625 -14.125 C 38.0625 -10.820312 37.332031 -7.691406 36.4375 -4.734375 C 38.957031 -5.617188 41.519531 -6.75 44.125 -8.125 Z M 47.96875 -23.875 C 47.769531 -23.476562 47.671875 -23.179688 47.671875 -22.984375 C 47.671875 -22.785156 47.832031 -22.6875 48.15625 -22.6875 C 48.476562 -22.6875 49.550781 -22.894531 51.375 -23.3125 C 53.195312 -23.738281 54.253906 -24.171875 54.546875 -24.609375 C 54.847656 -25.054688 55 -25.597656 55 -26.234375 C 55 -26.878906 54.628906 -28.285156 53.890625 -30.453125 C 52.660156 -28.535156 50.6875 -26.34375 47.96875 -23.875 Z M 34.8125 -23.21875 C 34.71875 -25.476562 34.226562 -27.050781 33.34375 -27.9375 C 31.46875 -25.332031 30.132812 -23.039062 29.34375 -21.0625 C 29.488281 -21.019531 29.722656 -21 30.046875 -21 C 30.367188 -21 30.648438 -21.117188 30.890625 -21.359375 C 31.140625 -21.609375 31.425781 -21.734375 31.75 -21.734375 C 32.070312 -21.734375 32.332031 -21.695312 32.53125 -21.625 C 32.726562 -21.550781 32.875 -21.515625 32.96875 -21.515625 C 33.3125 -21.515625 33.925781 -22.082031 34.8125 -23.21875 Z M 34.75 -16.484375 C 33.164062 -14.753906 32.375 -13.128906 32.375 -11.609375 C 32.375 -11.210938 32.445312 -10.878906 32.59375 -10.609375 C 32.75 -10.335938 32.898438 -10.203125 33.046875 -10.203125 C 33.828125 -10.203125 34.394531 -12.296875 34.75 -16.484375 Z M 34.75 -16.484375 "/></g></g></g><g fill="rgb(0%, 0%, 0%)" fill-opacity="1"><g transform="translate(301.06206, 72.969084)"><g><path d="M 55.140625 -37.78125 C 57.265625 -38.707031 58.644531 -39.171875 59.28125 -39.171875 C 59.925781 -39.171875 60.484375 -38.9375 60.953125 -38.46875 C 61.421875 -38.007812 62.046875 -37.46875 62.828125 -36.84375 C 63.617188 -36.226562 64.015625 -35.632812 64.015625 -35.0625 C 64.015625 -34.5 63.707031 -34.054688 63.09375 -33.734375 C 62.476562 -33.421875 61.601562 -33.289062 60.46875 -33.34375 C 57.65625 -30.875 54.945312 -29.222656 52.34375 -28.390625 C 51.5 -27.253906 50.585938 -25.675781 49.609375 -23.65625 C 51.472656 -24.195312 53.117188 -24.46875 54.546875 -24.46875 C 57.265625 -24.46875 59.5 -23.492188 61.25 -21.546875 C 63 -19.597656 63.875 -18.191406 63.875 -17.328125 C 63.875 -16.472656 63.648438 -15.625 63.203125 -14.78125 C 62.753906 -13.945312 62.335938 -12.738281 61.953125 -11.15625 C 60.367188 -4.90625 59.0625 -1.285156 58.03125 -0.296875 C 57.632812 0.0976562 56.921875 1.378906 55.890625 3.546875 C 55.585938 4.140625 55.238281 4.4375 54.84375 4.4375 C 53.914062 4.4375 53.054688 2.984375 52.265625 0.078125 C 51.921875 -1.109375 51.460938 -1.703125 50.890625 -1.703125 C 50.328125 -1.703125 49.601562 -1.53125 48.71875 -1.1875 C 44.53125 0.488281 41.71875 1.328125 40.28125 1.328125 C 38.851562 1.328125 38.039062 0.640625 37.84375 -0.734375 C 37.695312 -1.429688 37.289062 -2.40625 36.625 -3.65625 C 35.957031 -4.914062 35.054688 -6.945312 33.921875 -9.75 C 32.796875 -12.5625 32.171875 -14.164062 32.046875 -14.5625 C 31.921875 -14.957031 31.859375 -15.398438 31.859375 -15.890625 C 31.859375 -16.378906 32.003906 -16.832031 32.296875 -17.25 C 32.597656 -17.675781 32.957031 -17.890625 33.375 -17.890625 C 33.789062 -17.890625 34.304688 -17.617188 34.921875 -17.078125 C 35.546875 -16.535156 36.148438 -15.804688 36.734375 -14.890625 C 37.328125 -13.984375 37.804688 -12.851562 38.171875 -11.5 C 38.546875 -10.144531 39.101562 -7.71875 39.84375 -4.21875 C 40.632812 -4.21875 41.617188 -4.769531 42.796875 -5.875 C 43.984375 -6.988281 44.578125 -7.703125 44.578125 -8.015625 C 44.578125 -8.335938 44.328125 -8.609375 43.828125 -8.828125 C 43.335938 -9.054688 42.625 -9.613281 41.6875 -10.5 C 40.75 -11.382812 40.28125 -11.972656 40.28125 -12.265625 C 40.28125 -12.566406 40.859375 -12.925781 42.015625 -13.34375 C 43.179688 -13.757812 44.476562 -14.09375 45.90625 -14.34375 C 45.957031 -15.375 45.785156 -16.410156 45.390625 -17.453125 C 43.660156 -17.253906 42.5 -17.066406 41.90625 -16.890625 C 41.320312 -16.710938 40.757812 -16.625 40.21875 -16.625 C 39.675781 -16.625 39.054688 -16.722656 38.359375 -16.921875 C 37.671875 -17.117188 37.328125 -17.390625 37.328125 -17.734375 C 37.328125 -18.273438 38.1875 -19.148438 39.90625 -20.359375 C 41.632812 -21.566406 43.582031 -22.320312 45.75 -22.625 C 45.75 -23.257812 45.726562 -23.726562 45.6875 -24.03125 C 45.1875 -24.070312 44.9375 -24.175781 44.9375 -24.34375 C 44.9375 -24.519531 45.234375 -24.734375 45.828125 -24.984375 C 47.109375 -27.742188 48.191406 -29.863281 49.078125 -31.34375 C 47.703125 -32.675781 47.015625 -33.539062 47.015625 -33.9375 C 47.015625 -34.519531 48.171875 -35.082031 50.484375 -35.625 L 51.96875 -42.5 C 52.40625 -44.570312 52.625 -45.84375 52.625 -46.3125 C 52.625 -46.78125 52.460938 -47.125 52.140625 -47.34375 C 51.828125 -47.5625 51.285156 -48.148438 50.515625 -49.109375 C 49.753906 -50.078125 49.375 -50.722656 49.375 -51.046875 C 49.375 -51.367188 49.609375 -51.613281 50.078125 -51.78125 C 50.546875 -51.957031 51.050781 -52.046875 51.59375 -52.046875 C 53.269531 -52.046875 54.710938 -51.453125 55.921875 -50.265625 C 57.128906 -49.085938 57.734375 -47.90625 57.734375 -46.71875 C 57.734375 -46.03125 57.519531 -45.351562 57.09375 -44.6875 C 56.675781 -44.019531 56.269531 -43.019531 55.875 -41.6875 C 55.488281 -40.363281 55.242188 -39.0625 55.140625 -37.78125 Z M 48.5625 -5.84375 C 49.84375 -6.238281 50.71875 -6.4375 51.1875 -6.4375 C 51.65625 -6.4375 52.1875 -6.066406 52.78125 -5.328125 C 53.070312 -4.929688 53.414062 -4.734375 53.8125 -4.734375 C 54.207031 -4.734375 54.585938 -5.113281 54.953125 -5.875 C 55.328125 -6.632812 55.859375 -8.539062 56.546875 -11.59375 C 57.234375 -14.65625 57.578125 -16.691406 57.578125 -17.703125 C 57.578125 -18.710938 57.503906 -19.390625 57.359375 -19.734375 C 57.210938 -20.078125 56.90625 -20.25 56.4375 -20.25 C 55.96875 -20.25 55.191406 -20.125 54.109375 -19.875 C 53.023438 -19.632812 51.796875 -19.414062 50.421875 -19.21875 C 50.960938 -18.039062 51.253906 -16.832031 51.296875 -15.59375 C 53.222656 -14.613281 54.1875 -13.503906 54.1875 -12.265625 C 54.1875 -11.523438 53.679688 -10.75 52.671875 -9.9375 C 51.660156 -9.125 50.539062 -8.398438 49.3125 -7.765625 C 49.207031 -7.222656 48.957031 -6.582031 48.5625 -5.84375 Z M 44.578125 -4.8125 C 44.328125 -5.351562 44.066406 -5.625 43.796875 -5.625 C 43.523438 -5.625 43.238281 -5.445312 42.9375 -5.09375 C 42.644531 -4.75 42.5 -4.53125 42.5 -4.4375 C 43.09375 -4.632812 43.785156 -4.757812 44.578125 -4.8125 Z M 24.3125 -39.984375 C 24.46875 -40.285156 24.914062 -40.953125 25.65625 -41.984375 C 25.851562 -42.234375 25.953125 -42.75 25.953125 -43.53125 C 25.953125 -44.320312 25.835938 -45.1875 25.609375 -46.125 C 25.390625 -47.0625 25.15625 -47.710938 24.90625 -48.078125 C 24.664062 -48.453125 24.546875 -48.722656 24.546875 -48.890625 C 24.546875 -49.066406 24.691406 -49.15625 24.984375 -49.15625 C 25.273438 -49.15625 25.664062 -48.867188 26.15625 -48.296875 C 26.65625 -47.734375 27.023438 -47.453125 27.265625 -47.453125 C 27.515625 -47.453125 27.785156 -47.5 28.078125 -47.59375 C 28.378906 -47.695312 28.703125 -47.75 29.046875 -47.75 C 30.472656 -47.75 31.78125 -47.035156 32.96875 -45.609375 C 34.15625 -44.179688 34.75 -42.9375 34.75 -41.875 C 34.75 -40.8125 34.300781 -39.9375 33.40625 -39.25 C 31.882812 -38.070312 30.65625 -36.941406 29.71875 -35.859375 C 29.863281 -33.929688 29.519531 -32.351562 28.6875 -31.125 C 28.832031 -29.738281 28.90625 -28.539062 28.90625 -27.53125 C 28.90625 -26.519531 29.101562 -26.015625 29.5 -26.015625 C 29.695312 -26.015625 29.941406 -26.222656 30.234375 -26.640625 C 30.523438 -27.066406 30.84375 -27.28125 31.1875 -27.28125 C 31.539062 -27.28125 31.71875 -26.847656 31.71875 -25.984375 C 31.71875 -25.117188 31.519531 -24.289062 31.125 -23.5 C 29.195312 -19.851562 28.082031 -17.5625 27.78125 -16.625 C 27.488281 -15.695312 27.34375 -12.941406 27.34375 -8.359375 C 27.34375 -3.773438 27.394531 -0.644531 27.5 1.03125 L 27.71875 4.875 C 27.71875 6.15625 27.273438 6.796875 26.390625 6.796875 C 25.648438 6.796875 25.035156 6.28125 24.546875 5.25 C 22.867188 1.75 21.265625 -1.304688 19.734375 -3.921875 C 19.535156 -4.210938 19.4375 -4.46875 19.4375 -4.6875 C 19.4375 -4.914062 19.546875 -5.03125 19.765625 -5.03125 C 19.992188 -5.03125 20.414062 -4.804688 21.03125 -4.359375 C 21.644531 -3.921875 22.113281 -3.703125 22.4375 -3.703125 C 22.757812 -3.703125 22.96875 -4.082031 23.0625 -4.84375 C 23.164062 -5.601562 23.289062 -7.929688 23.4375 -11.828125 C 22.988281 -11.140625 21.953125 -9.96875 20.328125 -8.3125 C 18.703125 -6.664062 17.65625 -5.726562 17.1875 -5.5 C 16.71875 -5.28125 16.234375 -5.171875 15.734375 -5.171875 C 15.242188 -5.171875 14.800781 -5.515625 14.40625 -6.203125 C 14.019531 -6.898438 13.828125 -7.765625 13.828125 -8.796875 C 13.828125 -9.828125 13.882812 -10.703125 14 -11.421875 C 14.125 -12.140625 14.285156 -12.59375 14.484375 -12.78125 C 14.679688 -12.976562 15.0625 -13.203125 15.625 -13.453125 C 16.195312 -13.703125 16.789062 -14.171875 17.40625 -14.859375 C 18.019531 -15.546875 18.914062 -16.8125 20.09375 -18.65625 C 21.28125 -20.507812 22.414062 -22.71875 23.5 -25.28125 C 23.457031 -27.007812 23.363281 -28.316406 23.21875 -29.203125 C 19.863281 -24.660156 17.429688 -21.847656 15.921875 -20.765625 C 14.421875 -19.679688 13.273438 -19.140625 12.484375 -19.140625 C 11.703125 -19.140625 11.234375 -19.320312 11.078125 -19.6875 C 10.929688 -20.0625 10.21875 -20.898438 8.9375 -22.203125 C 7.65625 -23.515625 7.015625 -24.566406 7.015625 -25.359375 C 7.015625 -25.703125 7.140625 -25.875 7.390625 -25.875 C 7.640625 -25.875 7.863281 -25.75 8.0625 -25.5 C 8.84375 -24.320312 9.75 -23.734375 10.78125 -23.734375 C 11.820312 -23.734375 13.019531 -24.421875 14.375 -25.796875 C 15.726562 -27.179688 16.476562 -27.992188 16.625 -28.234375 C 18.601562 -31.585938 20.253906 -34.101562 21.578125 -35.78125 C 13.304688 -37.257812 9.171875 -38.316406 9.171875 -38.953125 C 9.171875 -39.296875 9.882812 -40.007812 11.3125 -41.09375 C 12.738281 -42.1875 14.128906 -42.734375 15.484375 -42.734375 C 16.835938 -42.734375 18.082031 -42.507812 19.21875 -42.0625 Z M 39.625 -33.484375 C 39.769531 -34.128906 39.84375 -35.015625 39.84375 -36.140625 C 39.84375 -37.273438 39.519531 -38.445312 38.875 -39.65625 C 38.238281 -40.863281 37.425781 -41.613281 36.4375 -41.90625 C 36.195312 -41.957031 36.078125 -42.179688 36.078125 -42.578125 C 36.078125 -42.972656 36.445312 -43.328125 37.1875 -43.640625 C 37.925781 -43.960938 38.8125 -44.125 39.84375 -44.125 C 41.664062 -44.125 43.265625 -43.507812 44.640625 -42.28125 C 46.023438 -41.050781 46.71875 -39.929688 46.71875 -38.921875 C 46.71875 -37.910156 46.507812 -36.835938 46.09375 -35.703125 C 45.675781 -34.566406 45.15625 -32.59375 44.53125 -29.78125 C 43.914062 -26.976562 43.597656 -25.316406 43.578125 -24.796875 C 43.554688 -24.285156 43.320312 -23.796875 42.875 -23.328125 C 42.425781 -22.859375 42.007812 -22.625 41.625 -22.625 C 40.78125 -22.625 40.039062 -23.90625 39.40625 -26.46875 C 38.5625 -25.769531 37.78125 -25.421875 37.0625 -25.421875 C 36.351562 -25.421875 35.554688 -26.207031 34.671875 -27.78125 C 33.785156 -29.363281 33.34375 -30.5 33.34375 -31.1875 C 33.34375 -31.882812 33.90625 -32.234375 35.03125 -32.234375 C 36.664062 -32.234375 38.195312 -32.648438 39.625 -33.484375 Z M 39.625 -33.484375 "/></g></g></g><g fill="rgb(0%, 0%, 0%)" fill-opacity="1"><g transform="translate(92.963988, 127.613589)"><g><path d="M 9.109375 -17.59375 C 10.992188 -18.945312 12.316406 -19.988281 13.078125 -20.71875 C 13.847656 -21.445312 14.25 -21.835938 14.28125 -21.890625 C 14.3125 -21.953125 14.328125 -22.046875 14.328125 -22.171875 C 14.328125 -22.304688 14.226562 -22.5 14.03125 -22.75 C 13.832031 -23 13.625 -23.160156 13.40625 -23.234375 C 13.019531 -23.359375 12.828125 -23.5625 12.828125 -23.84375 C 12.828125 -23.96875 12.875 -24.0625 12.96875 -24.125 C 13.070312 -24.195312 13.375 -24.285156 13.875 -24.390625 C 14.375 -24.503906 14.894531 -24.5625 15.4375 -24.5625 C 16.726562 -24.5625 17.875 -24.289062 18.875 -23.75 C 19.875 -23.21875 20.375 -22.632812 20.375 -22 C 20.375 -21.375 20.09375 -20.9375 19.53125 -20.6875 C 18.976562 -20.4375 18.101562 -20.3125 16.90625 -20.3125 L 16.15625 -20.34375 C 15.78125 -20.34375 15.445312 -20.257812 15.15625 -20.09375 C 13.65625 -19.207031 12.738281 -18.765625 12.40625 -18.765625 L 12.078125 -18.796875 C 11.722656 -18.796875 10.734375 -18.394531 9.109375 -17.59375 Z M 20.3125 -3.75 C 21.882812 -3.300781 23.28125 -2.800781 24.5 -2.25 C 25.726562 -1.707031 26.675781 -1.203125 27.34375 -0.734375 C 28.007812 -0.265625 28.460938 0.140625 28.703125 0.484375 C 28.941406 0.828125 29.15625 1.421875 29.34375 2.265625 C 29.539062 3.117188 29.640625 3.675781 29.640625 3.9375 C 29.640625 4.34375 29.390625 4.546875 28.890625 4.546875 C 28.554688 4.546875 28.035156 4.367188 27.328125 4.015625 C 26.628906 3.671875 25.945312 3.203125 25.28125 2.609375 C 24.613281 2.015625 23.789062 1.441406 22.8125 0.890625 C 21.832031 0.347656 20.34375 -0.289062 18.34375 -1.03125 C 16.3125 1.132812 13.796875 2.21875 10.796875 2.21875 C 9.671875 2.21875 8.644531 2.035156 7.71875 1.671875 C 6.789062 1.316406 6.117188 0.8125 5.703125 0.15625 C 5.285156 -0.5 5.078125 -1.097656 5.078125 -1.640625 C 5.078125 -2.523438 5.613281 -3.34375 6.6875 -4.09375 C 7.757812 -4.84375 9.179688 -5.21875 10.953125 -5.21875 C 12.734375 -5.21875 14.707031 -5.003906 16.875 -4.578125 C 17.488281 -5.554688 17.910156 -6.378906 18.140625 -7.046875 C 18.367188 -7.710938 18.484375 -8.175781 18.484375 -8.4375 C 18.484375 -8.695312 18.375 -8.828125 18.15625 -8.828125 C 17.945312 -8.828125 17.617188 -8.59375 17.171875 -8.125 C 16.734375 -7.664062 16.164062 -7.179688 15.46875 -6.671875 C 14.78125 -6.160156 14.289062 -5.832031 14 -5.6875 C 13.71875 -5.539062 13.484375 -5.46875 13.296875 -5.46875 C 12.796875 -5.46875 12.421875 -5.832031 12.171875 -6.5625 C 11.921875 -7.289062 11.796875 -7.941406 11.796875 -8.515625 C 11.796875 -9.296875 12.109375 -9.796875 12.734375 -10.015625 C 13.160156 -10.148438 13.550781 -10.398438 13.90625 -10.765625 C 14.257812 -11.140625 14.859375 -11.914062 15.703125 -13.09375 C 16.554688 -14.28125 16.984375 -14.992188 16.984375 -15.234375 C 16.984375 -15.347656 16.875 -15.40625 16.65625 -15.40625 C 16.445312 -15.40625 16.035156 -15.125 15.421875 -14.5625 C 14.816406 -14.007812 14.21875 -13.335938 13.625 -12.546875 C 13.03125 -11.765625 12.3125 -11.171875 11.46875 -10.765625 C 10.632812 -10.359375 9.726562 -10.15625 8.75 -10.15625 C 7.78125 -10.15625 6.960938 -10.488281 6.296875 -11.15625 C 5.628906 -11.820312 5.296875 -12.46875 5.296875 -13.09375 C 5.296875 -13.726562 5.546875 -14.296875 6.046875 -14.796875 C 5.992188 -14.203125 6.039062 -13.828125 6.1875 -13.671875 C 6.332031 -13.515625 6.6875 -13.4375 7.25 -13.4375 C 7.820312 -13.4375 8.28125 -13.507812 8.625 -13.65625 C 8.976562 -13.800781 10.003906 -14.457031 11.703125 -15.625 C 13.410156 -16.789062 14.925781 -17.742188 16.25 -18.484375 C 17.570312 -19.222656 18.5625 -19.59375 19.21875 -19.59375 C 19.875 -19.59375 20.507812 -19.410156 21.125 -19.046875 C 21.75 -18.691406 22.0625 -18.304688 22.0625 -17.890625 C 22.0625 -17.472656 21.835938 -16.992188 21.390625 -16.453125 C 20.953125 -15.921875 19.835938 -14.3125 18.046875 -11.625 C 18.929688 -11.332031 19.675781 -11.007812 20.28125 -10.65625 C 20.894531 -10.300781 21.347656 -9.960938 21.640625 -9.640625 C 21.941406 -9.316406 22.09375 -8.988281 22.09375 -8.65625 C 22.09375 -8.320312 21.953125 -7.785156 21.671875 -7.046875 C 21.398438 -6.304688 20.945312 -5.207031 20.3125 -3.75 Z M 14.84375 -2.328125 C 12.832031 -3.015625 10.945312 -3.359375 9.1875 -3.359375 C 8.28125 -3.359375 7.65625 -3.296875 7.3125 -3.171875 C 6.96875 -3.054688 6.691406 -2.863281 6.484375 -2.59375 C 6.285156 -2.320312 6.1875 -1.960938 6.1875 -1.515625 C 6.1875 -1.078125 6.484375 -0.648438 7.078125 -0.234375 C 7.671875 0.179688 8.351562 0.390625 9.125 0.390625 C 9.90625 0.390625 10.875 0.132812 12.03125 -0.375 C 13.1875 -0.882812 14.125 -1.535156 14.84375 -2.328125 Z M 22.625 -14.4375 C 24.34375 -14.769531 25.40625 -14.9375 25.8125 -14.9375 C 26.21875 -14.9375 26.78125 -14.625 27.5 -14 C 28.226562 -13.382812 28.59375 -12.816406 28.59375 -12.296875 C 28.59375 -11.773438 28.253906 -11.304688 27.578125 -10.890625 C 26.898438 -10.472656 26.347656 -10.265625 25.921875 -10.265625 C 25.492188 -10.265625 25.160156 -10.429688 24.921875 -10.765625 C 24.679688 -11.097656 24.4375 -11.335938 24.1875 -11.484375 C 23.9375 -11.640625 23.8125 -11.773438 23.8125 -11.890625 C 23.8125 -12.015625 23.953125 -12.148438 24.234375 -12.296875 C 24.523438 -12.441406 24.671875 -12.632812 24.671875 -12.875 C 24.671875 -13.445312 23.988281 -13.96875 22.625 -14.4375 Z M 22.625 -14.4375 "/></g></g></g><g fill="rgb(0%, 0%, 0%)" fill-opacity="1"><g transform="translate(128.708659, 127.613589)"><g><path d="M 19.40625 -11.21875 C 21.695312 -11.320312 23.726562 -10.742188 25.5 -9.484375 C 27.28125 -8.234375 28.171875 -7.0625 28.171875 -5.96875 C 28.171875 -5.46875 27.96875 -5.015625 27.5625 -4.609375 C 27.320312 -4.367188 26.875 -3.507812 26.21875 -2.03125 C 25.5625 -0.5625 24.753906 0.78125 23.796875 2 C 22.847656 3.21875 21.851562 4.195312 20.8125 4.9375 C 19.78125 5.675781 19.050781 6.046875 18.625 6.046875 C 18.4375 6.046875 18.238281 5.984375 18.03125 5.859375 C 17.832031 5.742188 17.359375 5.332031 16.609375 4.625 C 15.859375 3.925781 15.253906 3.347656 14.796875 2.890625 C 13.535156 3.960938 12.476562 4.5 11.625 4.5 C 11.257812 4.5 10.953125 4.453125 10.703125 4.359375 C 10.453125 4.265625 10.328125 4.117188 10.328125 3.921875 C 10.328125 3.734375 10.445312 3.582031 10.6875 3.46875 C 13.113281 2.207031 15.890625 -1.796875 19.015625 -8.546875 C 18.066406 -8.421875 17.484375 -8.300781 17.265625 -8.1875 C 16.785156 -6.945312 15.957031 -5.539062 14.78125 -3.96875 C 13.601562 -2.394531 12.484375 -1.160156 11.421875 -0.265625 C 10.359375 0.628906 9.671875 1.078125 9.359375 1.078125 C 9.054688 1.078125 8.90625 0.960938 8.90625 0.734375 C 8.90625 0.503906 8.972656 0.0703125 9.109375 -0.5625 C 9.253906 -1.207031 9.4375 -1.640625 9.65625 -1.859375 C 11.96875 -4.171875 13.242188 -5.898438 13.484375 -7.046875 C 12.453125 -6.753906 11.5625 -6.40625 10.8125 -6 C 10.0625 -5.59375 8.984375 -4.890625 7.578125 -3.890625 C 7.242188 -3.660156 6.96875 -3.546875 6.75 -3.546875 C 6.414062 -3.546875 6.25 -3.863281 6.25 -4.5 C 6.25 -5.957031 6.429688 -6.722656 6.796875 -6.796875 C 7.171875 -6.867188 7.507812 -6.988281 7.8125 -7.15625 C 8.113281 -7.320312 8.726562 -7.722656 9.65625 -8.359375 C 9.675781 -8.648438 9.851562 -8.9375 10.1875 -9.21875 C 11.3125 -10.125 11.875 -10.828125 11.875 -11.328125 C 11.875 -11.523438 11.789062 -11.679688 11.625 -11.796875 C 11.457031 -11.910156 11.375 -12.53125 11.375 -13.65625 C 11.375 -14.78125 11.425781 -15.9375 11.53125 -17.125 C 11.632812 -18.3125 11.757812 -19.179688 11.90625 -19.734375 C 12.144531 -20.585938 12.265625 -21.300781 12.265625 -21.875 C 12.265625 -22.445312 12.347656 -22.734375 12.515625 -22.734375 C 12.773438 -22.734375 13.128906 -22.195312 13.578125 -21.125 C 14.609375 -23.789062 15.394531 -25.390625 15.9375 -25.921875 C 16.488281 -26.460938 17.097656 -26.734375 17.765625 -26.734375 C 18.429688 -26.734375 19.1875 -26.304688 20.03125 -25.453125 C 20.882812 -24.597656 21.3125 -23.835938 21.3125 -23.171875 C 21.3125 -22.953125 21.273438 -22.675781 21.203125 -22.34375 C 20.984375 -21.382812 20.796875 -19.71875 20.640625 -17.34375 C 20.484375 -14.976562 20.070312 -12.9375 19.40625 -11.21875 Z M 17.953125 -17.765625 C 18.117188 -19.960938 18.203125 -21.363281 18.203125 -21.96875 C 18.203125 -22.570312 18.164062 -22.988281 18.09375 -23.21875 C 18.019531 -23.445312 17.84375 -23.5625 17.5625 -23.5625 C 17.289062 -23.5625 16.832031 -23.46875 16.1875 -23.28125 C 15.550781 -23.101562 15.113281 -22.914062 14.875 -22.71875 C 14.632812 -22.519531 14.40625 -22.160156 14.1875 -21.640625 C 13.976562 -21.128906 13.859375 -20.6875 13.828125 -20.3125 C 13.953125 -19.945312 14.023438 -19.597656 14.046875 -19.265625 C 14.640625 -19.503906 15.15625 -19.625 15.59375 -19.625 C 16.519531 -19.625 17.304688 -19.003906 17.953125 -17.765625 Z M 13.578125 -13.578125 C 14.015625 -14.035156 14.453125 -14.679688 14.890625 -15.515625 C 15.328125 -16.347656 15.546875 -16.859375 15.546875 -17.046875 C 15.546875 -17.523438 15.175781 -17.765625 14.4375 -17.765625 C 14.269531 -17.765625 14.09375 -17.753906 13.90625 -17.734375 C 13.625 -16.566406 13.515625 -15.179688 13.578125 -13.578125 Z M 17.484375 -14.734375 C 17.003906 -14.015625 16.40625 -13.007812 15.6875 -11.71875 C 15.90625 -11.582031 16.097656 -11.515625 16.265625 -11.515625 C 16.835938 -11.515625 17.242188 -12.585938 17.484375 -14.734375 Z M 16.015625 1.78125 C 16.847656 2.332031 17.578125 2.609375 18.203125 2.609375 C 19.128906 2.609375 20.078125 1.925781 21.046875 0.5625 C 22.023438 -0.789062 22.929688 -2.289062 23.765625 -3.9375 C 24.609375 -5.582031 25.03125 -6.617188 25.03125 -7.046875 C 25.03125 -7.472656 24.785156 -7.859375 24.296875 -8.203125 C 23.804688 -8.546875 23.144531 -8.71875 22.3125 -8.71875 C 22.070312 -7.84375 21.210938 -6.148438 19.734375 -3.640625 C 18.253906 -1.140625 17.015625 0.664062 16.015625 1.78125 Z M 16.015625 1.78125 "/></g></g></g><g fill="rgb(0%, 0%, 0%)" fill-opacity="1"><g transform="translate(164.45333, 127.613589)"><g><path d="M 21.09375 -22.8125 C 24.113281 -23 25.914062 -23.207031 26.5 -23.4375 C 27.09375 -23.664062 27.648438 -23.78125 28.171875 -23.78125 C 29.078125 -23.78125 29.945312 -23.441406 30.78125 -22.765625 C 31.613281 -22.097656 32.03125 -21.503906 32.03125 -20.984375 C 32.03125 -20.796875 31.953125 -20.628906 31.796875 -20.484375 C 31.640625 -20.335938 31.414062 -20.257812 31.125 -20.25 C 30.84375 -20.238281 30.5625 -20.234375 30.28125 -20.234375 C 29.632812 -20.234375 28.40625 -20.132812 26.59375 -19.9375 C 24.78125 -19.75 23.390625 -19.585938 22.421875 -19.453125 C 21.460938 -19.328125 20.90625 -19.265625 20.75 -19.265625 C 20.59375 -19.265625 20.515625 -19.289062 20.515625 -19.34375 C 20.515625 -19.457031 20.765625 -19.6875 21.265625 -20.03125 C 21.765625 -20.382812 22.347656 -20.726562 23.015625 -21.0625 C 22.753906 -21.101562 22.429688 -21.125 22.046875 -21.125 C 21.671875 -21.125 21.222656 -21.101562 20.703125 -21.0625 C 20.503906 -20.195312 20.179688 -19.625 19.734375 -19.34375 C 20.234375 -18.84375 20.484375 -18.007812 20.484375 -16.84375 C 20.484375 -16.507812 20.457031 -16.140625 20.40625 -15.734375 C 20.71875 -15.753906 21.085938 -15.90625 21.515625 -16.1875 C 21.953125 -16.476562 22.421875 -16.625 22.921875 -16.625 C 23.703125 -16.625 24.585938 -16.1875 25.578125 -15.3125 C 26.566406 -14.445312 27.0625 -13.535156 27.0625 -12.578125 C 27.0625 -12.316406 27.015625 -12.066406 26.921875 -11.828125 C 26.535156 -10.898438 26.304688 -9.4375 26.234375 -7.4375 C 26.210938 -6.625 26.03125 -5.609375 25.6875 -4.390625 C 25.34375 -3.179688 25.078125 -2.457031 24.890625 -2.21875 C 24.710938 -1.976562 24.546875 -1.859375 24.390625 -1.859375 C 24.242188 -1.859375 24.078125 -1.90625 23.890625 -2 C 23.710938 -2.09375 23.15625 -2.675781 22.21875 -3.75 C 21.28125 -4.820312 20.523438 -5.726562 19.953125 -6.46875 C 19.734375 -2.269531 19.429688 1.003906 19.046875 3.359375 C 18.671875 5.722656 18.40625 6.90625 18.25 6.90625 C 18.09375 6.90625 17.910156 6.515625 17.703125 5.734375 C 17.503906 4.960938 17.3125 3.691406 17.125 1.921875 C 16.9375 0.160156 16.84375 -1.335938 16.84375 -2.578125 C 16.84375 -3.816406 16.882812 -4.691406 16.96875 -5.203125 C 17.050781 -5.710938 17.09375 -6.46875 17.09375 -7.46875 C 17.09375 -8.46875 17.054688 -9.992188 16.984375 -12.046875 C 16.242188 -12.023438 15.742188 -11.914062 15.484375 -11.71875 C 15.222656 -11.53125 15.03125 -11.148438 14.90625 -10.578125 C 14.644531 -9.390625 14.269531 -8.109375 13.78125 -6.734375 C 13.289062 -5.367188 12.953125 -4.5 12.765625 -4.125 C 12.578125 -3.757812 12.375 -3.578125 12.15625 -3.578125 C 11.9375 -3.578125 11.597656 -3.9375 11.140625 -4.65625 C 10.691406 -5.382812 10.46875 -6.242188 10.46875 -7.234375 C 10.46875 -8.222656 10.707031 -8.984375 11.1875 -9.515625 C 11.8125 -10.203125 12.125 -10.851562 12.125 -11.46875 C 12.125 -12.09375 12.007812 -12.628906 11.78125 -13.078125 C 11.550781 -13.535156 11.4375 -13.929688 11.4375 -14.265625 C 11.4375 -14.878906 11.65625 -15.359375 12.09375 -15.703125 C 12.539062 -16.054688 12.894531 -16.234375 13.15625 -16.234375 C 13.25 -16.234375 13.3125 -16.203125 13.34375 -16.140625 C 13.382812 -16.078125 13.398438 -16.003906 13.390625 -15.921875 C 13.378906 -15.835938 13.375 -15.785156 13.375 -15.765625 C 13.375 -15.484375 13.503906 -15.257812 13.765625 -15.09375 C 14.171875 -14.851562 14.53125 -14.265625 14.84375 -13.328125 C 15.570312 -14.066406 16.34375 -14.628906 17.15625 -15.015625 C 17.25 -15.515625 17.296875 -15.992188 17.296875 -16.453125 C 17.296875 -16.921875 17.09375 -17.367188 16.6875 -17.796875 C 16.550781 -17.941406 16.484375 -18.125 16.484375 -18.34375 C 16.484375 -18.769531 16.804688 -19.148438 17.453125 -19.484375 C 16.992188 -19.648438 16.71875 -19.890625 16.625 -20.203125 C 13.1875 -19.128906 9.894531 -17.804688 6.75 -16.234375 C 6.445312 -16.085938 6.195312 -16.015625 6 -16.015625 C 5.5 -16.015625 5.054688 -16.488281 4.671875 -17.4375 C 4.296875 -18.394531 4.109375 -19.085938 4.109375 -19.515625 C 4.109375 -19.941406 4.320312 -20.15625 4.75 -20.15625 C 4.875 -20.15625 5.046875 -20.140625 5.265625 -20.109375 C 5.492188 -20.078125 5.789062 -20.0625 6.15625 -20.0625 C 7.125 -20.0625 8.21875 -20.226562 9.4375 -20.5625 C 12.46875 -21.363281 15.039062 -21.929688 17.15625 -22.265625 C 17.207031 -22.367188 17.234375 -22.476562 17.234375 -22.59375 C 17.234375 -22.945312 16.992188 -23.265625 16.515625 -23.546875 C 16.035156 -23.835938 15.554688 -24.40625 15.078125 -25.25 C 14.609375 -26.101562 14.375 -26.742188 14.375 -27.171875 C 14.375 -27.359375 14.425781 -27.453125 14.53125 -27.453125 C 14.632812 -27.453125 14.785156 -27.347656 14.984375 -27.140625 C 15.191406 -26.941406 15.425781 -26.84375 15.6875 -26.84375 C 15.957031 -26.84375 16.175781 -26.863281 16.34375 -26.90625 C 16.507812 -26.957031 16.660156 -26.984375 16.796875 -26.984375 C 17.609375 -26.984375 18.535156 -26.660156 19.578125 -26.015625 C 20.628906 -25.378906 21.15625 -24.523438 21.15625 -23.453125 C 21.15625 -23.234375 21.132812 -23.019531 21.09375 -22.8125 Z M 19.984375 -7.859375 C 21.203125 -6.953125 21.976562 -6.5 22.3125 -6.5 C 22.425781 -6.5 22.5 -6.539062 22.53125 -6.625 C 22.570312 -6.707031 22.59375 -6.832031 22.59375 -7 L 22.59375 -7.65625 L 22.671875 -12.328125 C 22.671875 -13.140625 22.484375 -13.546875 22.109375 -13.546875 C 21.742188 -13.546875 21.117188 -13.320312 20.234375 -12.875 Z M 19.984375 -7.859375 "/></g></g></g><g fill="rgb(0%, 0%, 0%)" fill-opacity="1"><g transform="translate(200.198001, 127.613589)"><g><path d="M 22.3125 -14.9375 C 23.738281 -15.320312 24.84375 -15.515625 25.625 -15.515625 C 27.0625 -15.515625 28.554688 -14.796875 30.109375 -13.359375 C 31.671875 -11.929688 32.453125 -10.78125 32.453125 -9.90625 C 32.453125 -9.476562 31.875 -7.941406 30.71875 -5.296875 C 29.570312 -2.648438 28.660156 -0.941406 27.984375 -0.171875 C 27.316406 0.585938 26.410156 1.425781 25.265625 2.34375 C 24.128906 3.257812 23.410156 3.71875 23.109375 3.71875 C 22.816406 3.71875 22.390625 3.507812 21.828125 3.09375 C 21.265625 2.675781 20.351562 1.882812 19.09375 0.71875 C 18.132812 1.5 17.082031 2.179688 15.9375 2.765625 C 14.800781 3.347656 13.992188 3.640625 13.515625 3.640625 C 13.441406 3.640625 13.40625 3.597656 13.40625 3.515625 C 13.40625 3.429688 13.609375 3.265625 14.015625 3.015625 C 14.421875 2.765625 15.050781 2.238281 15.90625 1.4375 C 16.769531 0.644531 17.484375 -0.117188 18.046875 -0.859375 C 17.671875 -1.410156 17.328125 -2.03125 17.015625 -2.71875 C 15.992188 -1.757812 15.363281 -1.28125 15.125 -1.28125 C 14.882812 -1.28125 14.765625 -1.453125 14.765625 -1.796875 C 14.765625 -2.148438 14.851562 -2.742188 15.03125 -3.578125 C 15.207031 -4.410156 15.726562 -5.148438 16.59375 -5.796875 C 16.613281 -6.597656 16.847656 -7.691406 17.296875 -9.078125 C 16.941406 -9.296875 16.65625 -9.628906 16.4375 -10.078125 C 16.226562 -10.535156 16.125 -11.082031 16.125 -11.71875 C 16.125 -12.363281 16.269531 -12.851562 16.5625 -13.1875 C 16.863281 -13.519531 17.503906 -13.816406 18.484375 -14.078125 C 19.628906 -15.460938 20.5625 -16.753906 21.28125 -17.953125 C 22.007812 -19.160156 22.375 -19.875 22.375 -20.09375 C 22.375 -20.132812 22.363281 -20.15625 22.34375 -20.15625 C 22.320312 -20.15625 22.273438 -20.125 22.203125 -20.0625 C 21.816406 -19.675781 21.394531 -19.484375 20.9375 -19.484375 C 20.488281 -19.484375 19.878906 -19.617188 19.109375 -19.890625 C 18.335938 -20.171875 17.914062 -20.3125 17.84375 -20.3125 C 17.03125 -20.3125 16.164062 -18.914062 15.25 -16.125 C 14.332031 -13.332031 13.546875 -11.0625 12.890625 -9.3125 C 12.234375 -7.5625 11.46875 -5.703125 10.59375 -3.734375 C 9.726562 -1.765625 9.222656 -0.691406 9.078125 -0.515625 C 8.929688 -0.335938 8.765625 -0.25 8.578125 -0.25 C 8.128906 -0.25 7.660156 -0.6875 7.171875 -1.5625 C 6.679688 -2.445312 6.4375 -3.144531 6.4375 -3.65625 C 6.4375 -4.175781 6.53125 -4.484375 6.71875 -4.578125 C 7.144531 -5.648438 7.441406 -6.878906 7.609375 -8.265625 C 6.128906 -8.378906 4.804688 -8.8125 3.640625 -9.5625 C 2.472656 -10.3125 1.890625 -10.84375 1.890625 -11.15625 C 1.890625 -11.363281 2.164062 -11.46875 2.71875 -11.46875 C 3.269531 -11.46875 3.828125 -11.695312 4.390625 -12.15625 C 5.253906 -12.820312 6.554688 -13.679688 8.296875 -14.734375 C 8.441406 -16.210938 8.523438 -17.257812 8.546875 -17.875 C 8.046875 -18.539062 7.734375 -18.96875 7.609375 -19.15625 C 7.492188 -19.351562 7.472656 -19.453125 7.546875 -19.453125 C 7.640625 -19.453125 7.972656 -19.1875 8.546875 -18.65625 C 8.546875 -19.300781 8.484375 -19.703125 8.359375 -19.859375 C 8.242188 -20.015625 7.953125 -20.09375 7.484375 -20.09375 C 7.023438 -20.09375 6.796875 -20.28125 6.796875 -20.65625 C 6.796875 -20.925781 6.910156 -21.195312 7.140625 -21.46875 C 7.378906 -21.738281 7.75 -21.875 8.25 -21.875 C 8.757812 -21.875 9.460938 -21.550781 10.359375 -20.90625 C 11.265625 -20.269531 11.71875 -19.519531 11.71875 -18.65625 C 11.71875 -18.25 11.632812 -17.65625 11.46875 -16.875 C 12.8125 -16.226562 13.484375 -15.359375 13.484375 -14.265625 C 13.484375 -14.003906 13.320312 -13.847656 13 -13.796875 C 12.675781 -13.753906 12.363281 -13.578125 12.0625 -13.265625 C 11.769531 -12.953125 11.46875 -12.515625 11.15625 -11.953125 C 10.84375 -11.398438 10.660156 -10.898438 10.609375 -10.453125 C 10.566406 -10.015625 10.535156 -9.460938 10.515625 -8.796875 C 10.773438 -9.054688 11.203125 -9.675781 11.796875 -10.65625 C 12.390625 -11.632812 12.867188 -12.515625 13.234375 -13.296875 C 14.972656 -17.066406 16.242188 -19.535156 17.046875 -20.703125 C 17.191406 -21.460938 17.601562 -21.96875 18.28125 -22.21875 C 18.96875 -22.46875 19.953125 -22.859375 21.234375 -23.390625 C 22.523438 -23.929688 23.296875 -24.269531 23.546875 -24.40625 C 23.796875 -24.550781 24.070312 -24.625 24.375 -24.625 C 25.207031 -24.625 25.816406 -24.3125 26.203125 -23.6875 C 26.585938 -23.070312 26.78125 -22.347656 26.78125 -21.515625 C 26.78125 -20.898438 26.625 -20.414062 26.3125 -20.0625 C 24.6875 -18.15625 23.351562 -16.445312 22.3125 -14.9375 Z M 20.484375 -0.5 C 21.203125 -0.113281 21.9375 0.078125 22.6875 0.078125 C 23.4375 0.078125 24.054688 -0.117188 24.546875 -0.515625 C 25.035156 -0.910156 25.644531 -1.710938 26.375 -2.921875 C 27.113281 -4.140625 27.707031 -5.457031 28.15625 -6.875 C 28.613281 -8.300781 28.84375 -9.363281 28.84375 -10.0625 C 28.84375 -10.769531 28.550781 -11.421875 27.96875 -12.015625 C 27.382812 -12.609375 26.738281 -12.90625 26.03125 -12.90625 C 25.550781 -12.90625 24.570312 -12.671875 23.09375 -12.203125 C 21.613281 -11.742188 20.707031 -11.273438 20.375 -10.796875 C 20.445312 -10.535156 20.648438 -10.257812 20.984375 -9.96875 C 21.503906 -10.164062 22.085938 -10.570312 22.734375 -11.1875 C 23.023438 -11.851562 23.488281 -12.1875 24.125 -12.1875 C 24.769531 -12.1875 25.300781 -12.0625 25.71875 -11.8125 C 26.132812 -11.5625 26.34375 -11.117188 26.34375 -10.484375 C 26.34375 -9.859375 25.800781 -8.515625 24.71875 -6.453125 C 23.632812 -4.390625 22.222656 -2.40625 20.484375 -0.5 Z M 18.734375 -1.828125 C 20.546875 -4.546875 21.765625 -6.570312 22.390625 -7.90625 C 23.023438 -9.238281 23.34375 -10.015625 23.34375 -10.234375 C 23.34375 -10.460938 23.203125 -10.554688 22.921875 -10.515625 C 22.296875 -10.148438 21.757812 -9.707031 21.3125 -9.1875 C 21.039062 -8.40625 20.691406 -7.671875 20.265625 -6.984375 C 19.835938 -6.304688 19.039062 -5.132812 17.875 -3.46875 C 18.0625 -2.894531 18.347656 -2.347656 18.734375 -1.828125 Z M 18.34375 -8.96875 C 18.144531 -8.925781 18.023438 -8.90625 17.984375 -8.90625 C 17.390625 -8.164062 17.09375 -7.316406 17.09375 -6.359375 C 17.664062 -7.054688 18.023438 -7.550781 18.171875 -7.84375 C 18.328125 -8.144531 18.382812 -8.519531 18.34375 -8.96875 Z M 18.34375 -8.96875 "/></g></g></g></svg>